G04 #@! TF.GenerationSoftware,KiCad,Pcbnew,5.0.2-bee76a0~70~ubuntu16.04.1*
G04 #@! TF.CreationDate,2019-02-11T12:56:34+03:00*
G04 #@! TF.ProjectId,esp12ef-ver1,65737031-3265-4662-9d76-6572312e6b69,rev?*
G04 #@! TF.SameCoordinates,Original*
G04 #@! TF.FileFunction,Copper,L2,Bot*
G04 #@! TF.FilePolarity,Positive*
%FSLAX46Y46*%
G04 Gerber Fmt 4.6, Leading zero omitted, Abs format (unit mm)*
G04 Created by KiCad (PCBNEW 5.0.2-bee76a0~70~ubuntu16.04.1) date Пн 11 фев 2019 12:56:34*
%MOMM*%
%LPD*%
G01*
G04 APERTURE LIST*
G04 #@! TA.AperFunction,ComponentPad*
%ADD10C,1.300000*%
G04 #@! TD*
G04 #@! TA.AperFunction,ComponentPad*
%ADD11R,1.300000X1.300000*%
G04 #@! TD*
G04 #@! TA.AperFunction,ComponentPad*
%ADD12O,1.600000X1.600000*%
G04 #@! TD*
G04 #@! TA.AperFunction,ComponentPad*
%ADD13C,1.600000*%
G04 #@! TD*
G04 #@! TA.AperFunction,ComponentPad*
%ADD14R,1.700000X1.700000*%
G04 #@! TD*
G04 #@! TA.AperFunction,ComponentPad*
%ADD15O,1.700000X1.700000*%
G04 #@! TD*
G04 #@! TA.AperFunction,ComponentPad*
%ADD16C,2.000000*%
G04 #@! TD*
G04 #@! TA.AperFunction,ComponentPad*
%ADD17R,2.500000X1.100000*%
G04 #@! TD*
G04 #@! TA.AperFunction,ComponentPad*
%ADD18O,2.500000X1.100000*%
G04 #@! TD*
G04 #@! TA.AperFunction,ComponentPad*
%ADD19O,1.100000X2.500000*%
G04 #@! TD*
G04 #@! TA.AperFunction,ComponentPad*
%ADD20C,1.200000*%
G04 #@! TD*
G04 #@! TA.AperFunction,ComponentPad*
%ADD21R,1.200000X1.200000*%
G04 #@! TD*
G04 #@! TA.AperFunction,ViaPad*
%ADD22C,0.800000*%
G04 #@! TD*
G04 #@! TA.AperFunction,Conductor*
%ADD23C,0.250000*%
G04 #@! TD*
G04 APERTURE END LIST*
D10*
G04 #@! TO.P,L1,2*
G04 #@! TO.N,Net-(C1-Pad1)*
X105410000Y-88900000D03*
G04 #@! TO.P,L1,3*
G04 #@! TO.N,Net-(C2-Pad1)*
X106680000Y-87630000D03*
D11*
G04 #@! TO.P,L1,1*
G04 #@! TO.N,Net-(C1-Pad2)*
X106680000Y-90170000D03*
G04 #@! TD*
D12*
G04 #@! TO.P,R2,2*
G04 #@! TO.N,Net-(C1-Pad2)*
X109220000Y-83820000D03*
D13*
G04 #@! TO.P,R2,1*
G04 #@! TO.N,Net-(R1-Pad2)*
X99060000Y-83820000D03*
G04 #@! TD*
G04 #@! TO.P,R8,1*
G04 #@! TO.N,Net-(J2-Pad5)*
X154940000Y-88900000D03*
D12*
G04 #@! TO.P,R8,2*
G04 #@! TO.N,Net-(R8-Pad2)*
X154940000Y-99060000D03*
G04 #@! TD*
D13*
G04 #@! TO.P,C3,1*
G04 #@! TO.N,Net-(C2-Pad1)*
X109220000Y-69850000D03*
G04 #@! TO.P,C3,2*
G04 #@! TO.N,Net-(C1-Pad2)*
X109220000Y-74850000D03*
G04 #@! TD*
D14*
G04 #@! TO.P,J1,1*
G04 #@! TO.N,Net-(C1-Pad1)*
X99060000Y-88900000D03*
D15*
G04 #@! TO.P,J1,2*
G04 #@! TO.N,Net-(C1-Pad2)*
X99060000Y-91440000D03*
G04 #@! TD*
D14*
G04 #@! TO.P,J2,1*
G04 #@! TO.N,Net-(C2-Pad1)*
X160020000Y-73660000D03*
D15*
G04 #@! TO.P,J2,2*
G04 #@! TO.N,Net-(J2-Pad2)*
X160020000Y-76200000D03*
G04 #@! TO.P,J2,3*
G04 #@! TO.N,Net-(J2-Pad3)*
X160020000Y-78740000D03*
G04 #@! TO.P,J2,4*
G04 #@! TO.N,Net-(J2-Pad4)*
X160020000Y-81280000D03*
G04 #@! TO.P,J2,5*
G04 #@! TO.N,Net-(J2-Pad5)*
X160020000Y-83820000D03*
G04 #@! TO.P,J2,6*
G04 #@! TO.N,Net-(C1-Pad2)*
X160020000Y-86360000D03*
G04 #@! TD*
D14*
G04 #@! TO.P,J3,1*
G04 #@! TO.N,Net-(C2-Pad1)*
X160020000Y-91440000D03*
D15*
G04 #@! TO.P,J3,2*
G04 #@! TO.N,Net-(C1-Pad2)*
X160020000Y-93980000D03*
G04 #@! TO.P,J3,3*
G04 #@! TO.N,SCL*
X160020000Y-96520000D03*
G04 #@! TO.P,J3,4*
G04 #@! TO.N,SDA*
X160020000Y-99060000D03*
G04 #@! TD*
D16*
G04 #@! TO.P,SW1,2*
G04 #@! TO.N,Net-(J2-Pad2)*
X111760000Y-94560000D03*
G04 #@! TO.P,SW1,1*
G04 #@! TO.N,Net-(C1-Pad2)*
X111760000Y-99060000D03*
G04 #@! TO.P,SW1,2*
G04 #@! TO.N,Net-(J2-Pad2)*
X105260000Y-94560000D03*
G04 #@! TO.P,SW1,1*
G04 #@! TO.N,Net-(C1-Pad2)*
X105260000Y-99060000D03*
G04 #@! TD*
D17*
G04 #@! TO.P,U1,1*
G04 #@! TO.N,Net-(J2-Pad2)*
X124765001Y-82435001D03*
D18*
G04 #@! TO.P,U1,2*
G04 #@! TO.N,Net-(R1-Pad2)*
X124765001Y-84435001D03*
G04 #@! TO.P,U1,3*
G04 #@! TO.N,Net-(R5-Pad2)*
X124765001Y-86435001D03*
G04 #@! TO.P,U1,4*
G04 #@! TO.N,Net-(R4-Pad1)*
X124765001Y-88435001D03*
G04 #@! TO.P,U1,5*
G04 #@! TO.N,Net-(U1-Pad5)*
X124765001Y-90435001D03*
G04 #@! TO.P,U1,6*
G04 #@! TO.N,Net-(U1-Pad6)*
X124765001Y-92435001D03*
G04 #@! TO.P,U1,7*
G04 #@! TO.N,Net-(U1-Pad7)*
X124765001Y-94435001D03*
G04 #@! TO.P,U1,8*
G04 #@! TO.N,Net-(C2-Pad1)*
X124765001Y-96435001D03*
G04 #@! TO.P,U1,9*
G04 #@! TO.N,Net-(C1-Pad2)*
X140165001Y-96435001D03*
G04 #@! TO.P,U1,10*
G04 #@! TO.N,Net-(R7-Pad1)*
X140065001Y-94435001D03*
G04 #@! TO.P,U1,11*
G04 #@! TO.N,Net-(R6-Pad2)*
X140165001Y-92435001D03*
G04 #@! TO.P,U1,12*
G04 #@! TO.N,Net-(R8-Pad2)*
X140165001Y-90435001D03*
G04 #@! TO.P,U1,13*
G04 #@! TO.N,SDA*
X140165001Y-88435001D03*
G04 #@! TO.P,U1,14*
G04 #@! TO.N,SCL*
X140165001Y-86435001D03*
G04 #@! TO.P,U1,15*
G04 #@! TO.N,Net-(J2-Pad4)*
X140165001Y-84435001D03*
G04 #@! TO.P,U1,16*
G04 #@! TO.N,Net-(J2-Pad3)*
X140165001Y-82435001D03*
D19*
G04 #@! TO.P,U1,17*
G04 #@! TO.N,Net-(U1-Pad17)*
X127455001Y-98135001D03*
G04 #@! TO.P,U1,18*
G04 #@! TO.N,Net-(U1-Pad18)*
X129455001Y-98135001D03*
G04 #@! TO.P,U1,19*
G04 #@! TO.N,Net-(U1-Pad19)*
X131455001Y-98135001D03*
G04 #@! TO.P,U1,20*
G04 #@! TO.N,Net-(U1-Pad20)*
X133455001Y-98135001D03*
G04 #@! TO.P,U1,21*
G04 #@! TO.N,Net-(U1-Pad21)*
X135455001Y-98135001D03*
G04 #@! TO.P,U1,22*
G04 #@! TO.N,Net-(U1-Pad22)*
X137455001Y-98135001D03*
G04 #@! TD*
D20*
G04 #@! TO.P,C1,2*
G04 #@! TO.N,Net-(C1-Pad2)*
X100330000Y-99790000D03*
D21*
G04 #@! TO.P,C1,1*
G04 #@! TO.N,Net-(C1-Pad1)*
X100330000Y-97790000D03*
G04 #@! TD*
G04 #@! TO.P,C2,1*
G04 #@! TO.N,Net-(C2-Pad1)*
X104140000Y-71120000D03*
D20*
G04 #@! TO.P,C2,2*
G04 #@! TO.N,Net-(C1-Pad2)*
X104140000Y-73120000D03*
G04 #@! TD*
D13*
G04 #@! TO.P,R1,1*
G04 #@! TO.N,Net-(C1-Pad1)*
X99060000Y-78740000D03*
D12*
G04 #@! TO.P,R1,2*
G04 #@! TO.N,Net-(R1-Pad2)*
X109220000Y-78740000D03*
G04 #@! TD*
D13*
G04 #@! TO.P,R3,1*
G04 #@! TO.N,Net-(C2-Pad1)*
X119380000Y-69850000D03*
D12*
G04 #@! TO.P,R3,2*
G04 #@! TO.N,Net-(J2-Pad2)*
X119380000Y-80010000D03*
G04 #@! TD*
G04 #@! TO.P,R4,2*
G04 #@! TO.N,Net-(J2-Pad2)*
X118110000Y-99060000D03*
D13*
G04 #@! TO.P,R4,1*
G04 #@! TO.N,Net-(R4-Pad1)*
X118110000Y-88900000D03*
G04 #@! TD*
G04 #@! TO.P,R5,1*
G04 #@! TO.N,Net-(C2-Pad1)*
X114300000Y-69850000D03*
D12*
G04 #@! TO.P,R5,2*
G04 #@! TO.N,Net-(R5-Pad2)*
X114300000Y-80010000D03*
G04 #@! TD*
G04 #@! TO.P,R6,2*
G04 #@! TO.N,Net-(R6-Pad2)*
X154940000Y-83820000D03*
D13*
G04 #@! TO.P,R6,1*
G04 #@! TO.N,Net-(C2-Pad1)*
X154940000Y-73660000D03*
G04 #@! TD*
G04 #@! TO.P,R7,1*
G04 #@! TO.N,Net-(R7-Pad1)*
X149860000Y-90170000D03*
D12*
G04 #@! TO.P,R7,2*
G04 #@! TO.N,Net-(C1-Pad2)*
X149860000Y-100330000D03*
G04 #@! TD*
G04 #@! TO.P,R9,2*
G04 #@! TO.N,Net-(J2-Pad5)*
X149860000Y-83820000D03*
D13*
G04 #@! TO.P,R9,1*
G04 #@! TO.N,Net-(C2-Pad1)*
X149860000Y-73660000D03*
G04 #@! TD*
D22*
G04 #@! TO.N,Net-(J2-Pad3)*
X146050000Y-78740000D03*
G04 #@! TO.N,Net-(J2-Pad4)*
X146050000Y-82550000D03*
G04 #@! TO.N,SCL*
X146050000Y-86360000D03*
G04 #@! TO.N,SDA*
X146050000Y-88900000D03*
G04 #@! TO.N,Net-(R5-Pad2)*
X124460000Y-86360000D03*
X114300000Y-86360000D03*
G04 #@! TO.N,Net-(R8-Pad2)*
X144780000Y-90170000D03*
G04 #@! TD*
D23*
G04 #@! TO.N,Net-(C1-Pad2)*
X115570000Y-101600000D02*
X148590000Y-101600000D01*
X148590000Y-101600000D02*
X149860000Y-100330000D01*
X160020000Y-86360000D02*
X158750000Y-86360000D01*
X157480000Y-87630000D02*
X157480000Y-92710000D01*
X158750000Y-86360000D02*
X157480000Y-87630000D01*
X158750000Y-93980000D02*
X160020000Y-93980000D01*
X157480000Y-92710000D02*
X158750000Y-93980000D01*
X149860000Y-100330000D02*
X151130000Y-101600000D01*
X151130000Y-101600000D02*
X162560000Y-101600000D01*
X162560000Y-101600000D02*
X162560000Y-93980000D01*
X162560000Y-93980000D02*
X160020000Y-93980000D01*
X107490000Y-73120000D02*
X109220000Y-74850000D01*
X104140000Y-73120000D02*
X107490000Y-73120000D01*
X113030000Y-99060000D02*
X115570000Y-101600000D01*
X109220000Y-99060000D02*
X113030000Y-99060000D01*
X109220000Y-99060000D02*
X105260000Y-99060000D01*
X105410000Y-91440000D02*
X106680000Y-90170000D01*
X99060000Y-91440000D02*
X105410000Y-91440000D01*
X106680000Y-90170000D02*
X109220000Y-90170000D01*
X109220000Y-90170000D02*
X109220000Y-83820000D01*
X109220000Y-83820000D02*
X105410000Y-83820000D01*
X105410000Y-78660000D02*
X109220000Y-74850000D01*
X105410000Y-83820000D02*
X105410000Y-78660000D01*
X105260000Y-99060000D02*
X102870000Y-96670000D01*
X102870000Y-96670000D02*
X102870000Y-91440000D01*
X104260001Y-100059999D02*
X105260000Y-99060000D01*
X103930001Y-100389999D02*
X104260001Y-100059999D01*
X100929999Y-100389999D02*
X103930001Y-100389999D01*
X100330000Y-99790000D02*
X100929999Y-100389999D01*
G04 #@! TO.N,Net-(C1-Pad1)*
X99060000Y-88900000D02*
X105410000Y-88900000D01*
X99060000Y-78740000D02*
X102870000Y-78740000D01*
X99060000Y-87800000D02*
X99060000Y-88900000D01*
X102870000Y-83990000D02*
X99060000Y-87800000D01*
X102870000Y-78740000D02*
X102870000Y-83990000D01*
X100330000Y-97790000D02*
X97790000Y-97790000D01*
X99060000Y-88900000D02*
X96520000Y-88900000D01*
X96520000Y-96520000D02*
X97790000Y-97790000D01*
X96520000Y-88900000D02*
X96520000Y-96520000D01*
G04 #@! TO.N,Net-(C2-Pad1)*
X119380000Y-69850000D02*
X146050000Y-69850000D01*
X149860000Y-73660000D02*
X146050000Y-69850000D01*
X116840000Y-69850000D02*
X110490000Y-69850000D01*
X119380000Y-69850000D02*
X116840000Y-69850000D01*
X149860000Y-73660000D02*
X154940000Y-73660000D01*
X154940000Y-73660000D02*
X160020000Y-73660000D01*
X160020000Y-91440000D02*
X162560000Y-91440000D01*
X162560000Y-91440000D02*
X162560000Y-73660000D01*
X162560000Y-73660000D02*
X160020000Y-73660000D01*
X107950000Y-71120000D02*
X109220000Y-69850000D01*
X104140000Y-71120000D02*
X107950000Y-71120000D01*
X109220000Y-69850000D02*
X110490000Y-69850000D01*
X106680000Y-87630000D02*
X105410000Y-87630000D01*
X105410000Y-87630000D02*
X104140000Y-86360000D01*
X104140000Y-86360000D02*
X104140000Y-77470000D01*
X104140000Y-77470000D02*
X100330000Y-73660000D01*
X100330000Y-73660000D02*
X100330000Y-71120000D01*
X100330000Y-71120000D02*
X104140000Y-71120000D01*
G04 #@! TO.N,Net-(J2-Pad2)*
X160020000Y-76200000D02*
X125615001Y-76200000D01*
X119380000Y-80010000D02*
X121920000Y-80010000D01*
X121920000Y-80010000D02*
X125730000Y-76200000D01*
X106674213Y-94560000D02*
X111760000Y-94560000D01*
X105260000Y-94560000D02*
X106674213Y-94560000D01*
X111760000Y-94560000D02*
X111760000Y-92710000D01*
X119380000Y-85090000D02*
X119380000Y-80010000D01*
X111760000Y-92710000D02*
X119380000Y-85090000D01*
X118110000Y-99060000D02*
X115570000Y-99060000D01*
X115570000Y-98370000D02*
X111760000Y-94560000D01*
X115570000Y-99060000D02*
X115570000Y-98370000D01*
G04 #@! TO.N,Net-(J2-Pad3)*
X146050000Y-78740000D02*
X160020000Y-78740000D01*
G04 #@! TO.N,Net-(J2-Pad4)*
X147320000Y-81280000D02*
X146050000Y-82550000D01*
X160020000Y-81280000D02*
X147320000Y-81280000D01*
G04 #@! TO.N,Net-(J2-Pad5)*
X149860000Y-83820000D02*
X151130000Y-83820000D01*
X154940000Y-87630000D02*
X154940000Y-88192880D01*
X158750000Y-83820000D02*
X160020000Y-83820000D01*
X154940000Y-87630000D02*
X158750000Y-83820000D01*
X154940000Y-88900000D02*
X154940000Y-87630000D01*
X151130000Y-83820000D02*
X154940000Y-87630000D01*
G04 #@! TO.N,SCL*
X146050000Y-86360000D02*
X149860000Y-86360000D01*
X152400000Y-92710000D02*
X152400000Y-88900000D01*
X152400000Y-88900000D02*
X149860000Y-86360000D01*
X160020000Y-96520000D02*
X158750000Y-96520000D01*
X154940000Y-92710000D02*
X152400000Y-92710000D01*
X158750000Y-96520000D02*
X154940000Y-92710000D01*
G04 #@! TO.N,SDA*
X157480000Y-99060000D02*
X160020000Y-99060000D01*
X157480000Y-96520000D02*
X157480000Y-99060000D01*
X147320000Y-90170000D02*
X147320000Y-93980000D01*
X146050000Y-88900000D02*
X147320000Y-90170000D01*
X147320000Y-93980000D02*
X154940000Y-93980000D01*
X154940000Y-93980000D02*
X157480000Y-96520000D01*
G04 #@! TO.N,Net-(R5-Pad2)*
X114300000Y-86360000D02*
X114300000Y-80010000D01*
G04 #@! TO.N,Net-(R8-Pad2)*
X144780000Y-90170000D02*
X144780000Y-95250000D01*
X154940000Y-99060000D02*
X151130000Y-95250000D01*
X151130000Y-95250000D02*
X144780000Y-95250000D01*
G04 #@! TD*
M02*
